# xmcd
#
# Track frame offsets:
#	150
#	4949
#	32080
#	53715
#	67028
#	87202
#	103924
#	126629
#	145605
#	166470
#	185462
#
# Disc length: 2722 seconds
#
# Revision: 0
# Processed by: cddbd v1.5.1PL0 Copyright (c) Steve Scherf et al.
# Submitted via: EasyCDDAExtractor 5.0.5.1
#
DISCID=9a0aa00b
DTITLE=Emilia si Harry - Mare Petrecere vol.3
DYEAR=2004
DGENRE=Folklore
TTITLE0=Mosule te uiti chioras
TTITLE1=Mai barbate, barbatele
TTITLE2=Ma dusei ieri la padure
TTITLE3=Barbate-ai imbaranit
TTITLE4=Noaptea asta este mare
TTITLE5=Cine-n viata-i dusmanit
TTITLE6=Lasa-ma barbate-n pace
TTITLE7=Nunta mare si aleasa
TTITLE8=Doamne, tare-s dusmanita
TTITLE9=Omule, mai omule
TTITLE10=Barbatelul insurat
EXTD=YEAR: 1996
EXTT0=
EXTT1=
EXTT2=
EXTT3=
EXTT4=
EXTT5=
EXTT6=
EXTT7=
EXTT8=
EXTT9=
EXTT10=
PLAYORDER=
